<?xml version="1.0" encoding="utf-8"?>
<!-- Generator: Adobe Illustrator 15.1.0, SVG Export Plug-In . SVG Version: 6.00 Build 0)  -->
<!DOCTYPE svg PUBLIC "-//W3C//DTD SVG 1.1//EN" "http://www.w3.org/Graphics/SVG/1.1/DTD/svg11.dtd">
<svg version="1.1" id="Camada_1" xmlns="http://www.w3.org/2000/svg" xmlns:xlink="http://www.w3.org/1999/xlink" x="0px" y="0px"
	 width="505.774px" height="224.903px" viewBox="0 0 505.774 224.903" enable-background="new 0 0 505.774 224.903"
	 xml:space="preserve">
<path fill="#020400" d="M129.74,158.467v-13.733h5.462c3.875,0,7.073,2.678,7.073,6.96c0,4.213-3.198,6.773-6.886,6.773H129.74z
	 M128.41,143.453v16.294h6.98c4.529,0,8.264-3.259,8.264-8.054c0-4.888-3.782-8.24-8.451-8.24H128.41z"/>
<polygon fill="#020400" points="149.93,158.467 149.93,151.647 157.423,151.647 157.423,150.413 149.93,150.413 149.93,144.733 
	159.22,144.733 159.22,143.453 148.599,143.453 148.599,159.747 159.361,159.747 159.361,158.467 "/>
<path fill="#020400" d="M166.198,152.368v-7.635h3.315c2.824,0,4.622,1.327,4.622,3.817c0,2.352-1.634,3.817-4.622,3.817H166.198z
	 M164.867,143.453v16.294h1.331v-6.098h3.315c3.758,0,5.999-1.933,5.999-5.099c0-3.188-2.241-5.098-5.999-5.098H164.867z"/>
<path fill="#020400" d="M180.715,153.812l3.011-6.866c0.35-0.838,0.724-1.886,0.747-1.886h0.023c0.023,0,0.396,1.048,0.747,1.886
	l3.011,6.866H180.715z M190.869,159.747h1.471l-7.26-16.294h-1.19l-7.26,16.294h1.47l2.078-4.748h8.614L190.869,159.747z"/>
<path fill="#020400" d="M198.126,152.275v-7.542h3.385c2.801,0,4.552,1.351,4.552,3.748c0,2.234-1.587,3.794-4.552,3.794H198.126z
	 M207.954,159.747l-4.062-6.61c2.241-0.651,3.548-2.281,3.548-4.655c0-3.096-2.264-5.028-6-5.028h-4.646v16.294h1.331v-6.284h3.314
	c0.374,0,0.747-0.023,1.098-0.07l3.898,6.354H207.954z"/>
<polygon fill="#020400" points="211.103,143.453 211.103,144.733 216.682,144.733 216.682,159.747 218.036,159.747 218.036,144.733 
	223.638,144.733 223.638,143.453 "/>
<path fill="#020400" d="M228.515,153.812l3.011-6.866c0.35-0.838,0.724-1.886,0.747-1.886h0.023c0.023,0,0.396,1.048,0.747,1.886
	l3.011,6.866H228.515z M238.669,159.747h1.471l-7.26-16.294h-1.19l-7.26,16.294h1.47l2.078-4.748h8.614L238.669,159.747z"/>
<path fill="#020400" d="M258.064,143.453l-4.318,7.426c-1.47,2.49-1.75,3.212-1.774,3.212h-0.023c-0.023,0-0.304-0.722-1.774-3.212
	l-4.319-7.426h-1.261v16.294h1.331v-8.263c0-2.142-0.117-5.727-0.094-5.727h0.023c0.023,0,0.724,1.257,1.401,2.468l4.342,7.519
	h0.724l4.341-7.519c0.678-1.211,1.378-2.468,1.4-2.468h0.023c0.023,0-0.093,3.585-0.093,5.727v8.263h1.331v-16.294H258.064z"/>
<polygon fill="#020400" points="267.049,158.467 267.049,151.647 274.542,151.647 274.542,150.413 267.049,150.413 267.049,144.733 
	276.339,144.733 276.339,143.453 265.718,143.453 265.718,159.747 276.48,159.747 276.48,158.467 "/>
<path fill="#020400" d="M293.659,143.453v9.893c0,2.188,0.093,4.144,0.07,4.144h-0.023c-0.024,0-0.864-1.164-2.147-2.886
	l-8.311-11.15h-1.261v16.294h1.331v-9.916c0-2.327-0.07-4.236-0.047-4.236h0.023c0.023,0,0.723,1.048,2.123,2.956l8.334,11.196
	h1.261v-16.294H293.659z"/>
<polygon fill="#020400" points="299.702,143.453 299.702,144.733 305.281,144.733 305.281,159.747 306.634,159.747 306.634,144.733 
	312.237,144.733 312.237,143.453 "/>
<path fill="#020400" d="M316.273,151.601c0-4.283,3.104-7.169,7.097-7.169c3.968,0,7.119,2.886,7.119,7.169
	c0,4.236-3.151,7.169-7.119,7.169C319.377,158.77,316.273,155.837,316.273,151.601 M314.896,151.601
	c0,4.911,3.781,8.473,8.474,8.473s8.497-3.562,8.497-8.473s-3.805-8.473-8.497-8.473S314.896,146.689,314.896,151.601z"/>
<polygon fill="#020400" points="352.966,158.467 352.966,151.647 360.459,151.647 360.459,150.413 352.966,150.413 352.966,144.733 
	362.257,144.733 362.257,143.453 351.635,143.453 351.635,159.747 362.397,159.747 362.397,158.467 "/>
<path fill="#020400" d="M377.544,147.457c-0.49-2.63-2.777-4.329-5.695-4.329c-3.222,0-5.58,1.769-5.58,4.306
	c0,2.794,2.896,3.585,4.763,4.12c2.287,0.676,5.369,1.188,5.369,3.888c0,1.955-1.704,3.398-4.412,3.398
	c-2.918,0-4.599-1.793-4.785-3.888l-1.284,0.35c0.35,2.677,2.498,4.771,6.022,4.771c3.525,0,5.859-1.979,5.859-4.655
	c0-3.282-3.245-4.189-5.509-4.818c-2.218-0.605-4.646-1.233-4.646-3.213c0-1.908,1.751-3.049,4.155-3.049
	c2.287,0,4.085,1.304,4.435,3.469L377.544,147.457z"/>
<polygon fill="#020400" points="380.67,143.453 380.67,144.733 386.25,144.733 386.25,159.747 387.603,159.747 387.603,144.733 
	393.206,144.733 393.206,143.453 "/>
<path fill="#020400" d="M398.082,153.812l3.012-6.866c0.35-0.838,0.724-1.886,0.747-1.886h0.023c0.023,0,0.396,1.048,0.746,1.886
	l3.012,6.866H398.082z M408.236,159.747h1.471l-7.26-16.294h-1.19l-7.26,16.294h1.471l2.077-4.748h8.614L408.236,159.747z"/>
<path fill="#020400" d="M415.494,158.467v-13.733h5.462c3.875,0,7.073,2.678,7.073,6.96c0,4.213-3.198,6.773-6.887,6.773H415.494z
	 M414.163,143.453v16.294h6.979c4.529,0,8.264-3.259,8.264-8.054c0-4.888-3.781-8.24-8.45-8.24H414.163z"/>
<path fill="#020400" d="M445.861,143.453v9.73c0,3.747-1.751,5.633-5.206,5.633s-5.229-1.886-5.229-5.633v-9.73h-1.331v9.684
	c0,4.516,2.288,6.96,6.56,6.96c4.226,0,6.56-2.444,6.56-6.96v-9.684H445.861z"/>
<path fill="#020400" d="M454.425,153.812l3.011-6.866c0.351-0.838,0.725-1.886,0.747-1.886h0.023c0.023,0,0.397,1.048,0.747,1.886
	l3.011,6.866H454.425z M464.58,159.747h1.471l-7.26-16.294h-1.19l-7.26,16.294h1.471l2.077-4.748h8.613L464.58,159.747z"/>
<polygon fill="#020400" points="471.836,158.467 471.836,143.453 470.506,143.453 470.506,159.747 480.894,159.747 480.894,158.467 
	"/>
<path fill="#020400" d="M129.74,181.641v-13.733h5.462c3.875,0,7.073,2.677,7.073,6.96c0,4.213-3.198,6.773-6.886,6.773H129.74z
	 M128.41,166.627v16.294h6.98c4.529,0,8.264-3.259,8.264-8.054c0-4.889-3.782-8.24-8.451-8.24H128.41z"/>
<polygon fill="#020400" points="149.112,181.641 149.112,174.82 156.605,174.82 156.605,173.586 149.112,173.586 149.112,167.907 
	158.402,167.907 158.402,166.627 147.781,166.627 147.781,182.921 158.542,182.921 158.542,181.641 "/>
<polygon fill="#020400" points="167.386,166.627 167.386,167.907 172.965,167.907 172.965,182.921 174.319,182.921 174.319,167.907 
	179.921,167.907 179.921,166.627 "/>
<path fill="#020400" d="M185.147,175.449v-7.542h3.385c2.801,0,4.552,1.35,4.552,3.747c0,2.234-1.587,3.795-4.552,3.795H185.147z
	 M194.975,182.921l-4.062-6.611c2.241-0.651,3.548-2.28,3.548-4.655c0-3.096-2.265-5.027-6-5.027h-4.646v16.294h1.331v-6.285h3.314
	c0.374,0,0.747-0.023,1.097-0.07l3.898,6.355H194.975z"/>
<path fill="#020400" d="M201.717,176.984l3.011-6.866c0.35-0.838,0.724-1.886,0.747-1.886h0.023c0.023,0,0.397,1.048,0.747,1.886
	l3.011,6.866H201.717z M211.871,182.921h1.471l-7.26-16.294h-1.19l-7.26,16.294h1.47l2.078-4.749h8.614L211.871,182.921z
	 M205.475,163.019l2.964,2.537l0.724-0.744l-3.688-3.143l-3.711,3.143l0.723,0.744L205.475,163.019z"/>
<path fill="#020400" d="M228.651,166.627v9.893c0,2.188,0.093,4.144,0.07,4.144h-0.023c-0.023,0-0.864-1.164-2.148-2.887
	l-8.31-11.149h-1.261v16.294h1.331v-9.916c0-2.328-0.07-4.237-0.046-4.237h0.023c0.023,0,0.724,1.048,2.124,2.957l8.334,11.196
	h1.261v-16.294H228.651z"/>
<path fill="#020400" d="M245.828,170.631c-0.49-2.631-2.778-4.33-5.696-4.33c-3.221,0-5.579,1.77-5.579,4.307
	c0,2.793,2.895,3.584,4.762,4.119c2.288,0.676,5.369,1.188,5.369,3.888c0,1.955-1.704,3.398-4.412,3.398
	c-2.918,0-4.599-1.792-4.785-3.888l-1.284,0.35c0.35,2.677,2.498,4.771,6.023,4.771s5.859-1.979,5.859-4.655
	c0-3.282-3.245-4.189-5.509-4.818c-2.218-0.605-4.646-1.233-4.646-3.212c0-1.908,1.751-3.05,4.155-3.05
	c2.288,0,4.085,1.304,4.435,3.469L245.828,170.631z"/>
<rect x="250.353" y="166.627" fill="#020400" width="1.331" height="16.294"/>
<polygon fill="#020400" points="255.579,166.627 255.579,167.907 261.158,167.907 261.158,182.921 262.511,182.921 262.511,167.907 
	268.114,167.907 268.114,166.627 "/>
<path fill="#020400" d="M271.332,174.773c0-4.283,3.105-7.169,7.097-7.169c3.968,0,7.12,2.886,7.12,7.169
	c0,4.236-3.152,7.17-7.12,7.17C274.437,181.943,271.332,179.01,271.332,174.773 M269.955,174.773c0,4.912,3.781,8.473,8.474,8.473
	s8.497-3.561,8.497-8.473c0-4.911-3.805-8.473-8.497-8.473S269.955,169.862,269.955,174.773z"/>
<path fill="#020400" d="M298.454,181.641v-13.733h5.462c3.875,0,7.073,2.677,7.073,6.96c0,4.213-3.198,6.773-6.887,6.773H298.454z
	 M297.123,166.627v16.294h6.979c4.529,0,8.264-3.259,8.264-8.054c0-4.889-3.781-8.24-8.45-8.24H297.123z"/>
<path fill="#020400" d="M317.241,174.773c0-4.283,3.105-7.169,7.097-7.169c3.969,0,7.12,2.886,7.12,7.169
	c0,4.236-3.151,7.17-7.12,7.17C320.346,181.943,317.241,179.01,317.241,174.773 M315.864,174.773c0,4.912,3.781,8.473,8.474,8.473
	s8.497-3.561,8.497-8.473c0-4.911-3.805-8.473-8.497-8.473S315.864,169.862,315.864,174.773z"/>
<path fill="#020400" d="M345.367,176.984l3.011-6.866c0.351-0.838,0.724-1.886,0.747-1.886h0.023c0.023,0,0.396,1.048,0.747,1.886
	l3.011,6.866H345.367z M355.521,182.921h1.471l-7.26-16.294h-1.19l-7.261,16.294h1.471l2.078-4.749h8.613L355.521,182.921z"/>
<path fill="#020400" d="M374.098,166.627l-4.318,7.425c-1.471,2.491-1.751,3.213-1.774,3.213h-0.023
	c-0.023,0-0.304-0.722-1.773-3.213l-4.318-7.425h-1.262v16.294h1.331v-8.264c0-2.142-0.117-5.727-0.093-5.727h0.023
	c0.022,0,0.723,1.258,1.4,2.468l4.342,7.519h0.724l4.342-7.519c0.677-1.21,1.377-2.468,1.4-2.468h0.023
	c0.023,0-0.094,3.585-0.094,5.727v8.264h1.331v-16.294H374.098z"/>
<path fill="#020400" d="M383.082,176.984l3.012-6.866c0.351-0.838,0.724-1.886,0.747-1.886h0.023c0.022,0,0.396,1.048,0.746,1.886
	l3.012,6.866H383.082z M393.236,182.921h1.471l-7.26-16.294h-1.19l-7.26,16.294h1.471l2.077-4.749h8.614L393.236,182.921z"/>
<path fill="#020400" d="M410.6,166.627h-12.933v1.28h9.291c1.237,0,1.961-0.047,1.984-0.047l0.022,0.023
	c0,0.023-0.7,0.675-1.143,1.21l-10.389,12.593v1.234H410.6v-1.28h-9.431c-1.121,0-1.961,0.069-1.984,0.069l-0.023-0.023
	c0-0.022,0.49-0.488,1.144-1.28L410.6,167.86V166.627z"/>
<path fill="#020400" d="M414.518,174.773c0-4.283,3.104-7.169,7.097-7.169c3.968,0,7.119,2.886,7.119,7.169
	c0,4.236-3.151,7.17-7.119,7.17C417.623,181.943,414.518,179.01,414.518,174.773 M413.14,174.773c0,4.912,3.782,8.473,8.475,8.473
	c4.691,0,8.497-3.561,8.497-8.473c0-4.911-3.806-8.473-8.497-8.473C416.922,166.301,413.14,169.862,413.14,174.773z"/>
<path fill="#020400" d="M445.912,166.627v9.893c0,2.188,0.093,4.144,0.07,4.144h-0.023c-0.023,0-0.864-1.164-2.148-2.887
	l-8.31-11.149h-1.261v16.294h1.331v-9.916c0-2.328-0.07-4.237-0.047-4.237h0.022c0.024,0,0.725,1.048,2.125,2.957l8.333,11.196
	h1.261v-16.294H445.912z"/>
<path fill="#020400" d="M454.965,176.984l3.011-6.866c0.351-0.838,0.724-1.886,0.747-1.886h0.023c0.023,0,0.397,1.048,0.747,1.886
	l3.011,6.866H454.965z M465.12,182.921h1.47l-7.26-16.294h-1.19l-7.26,16.294h1.471l2.078-4.749h8.613L465.12,182.921z"/>
<path fill="#020400" d="M480.125,170.631c-0.49-2.631-2.777-4.33-5.696-4.33c-3.221,0-5.579,1.77-5.579,4.307
	c0,2.793,2.896,3.584,4.763,4.119c2.287,0.676,5.369,1.188,5.369,3.888c0,1.955-1.704,3.398-4.412,3.398
	c-2.918,0-4.599-1.792-4.785-3.888l-1.284,0.35c0.35,2.677,2.498,4.771,6.022,4.771c3.525,0,5.859-1.979,5.859-4.655
	c0-3.282-3.245-4.189-5.509-4.818c-2.218-0.605-4.646-1.233-4.646-3.212c0-1.908,1.751-3.05,4.155-3.05
	c2.287,0,4.085,1.304,4.435,3.469L480.125,170.631z"/>
<path fill-rule="evenodd" clip-rule="evenodd" fill="#D68500" d="M109.095,86.247l32.614-18.69l-32.614-18.829V86.247z
	 M99.582,102.664V32.249l61.208,35.338L99.582,102.664z"/>
<polygon fill-rule="evenodd" clip-rule="evenodd" fill="#001A43" points="103.97,78.355 103.97,56.559 85.024,67.498 "/>
<polygon fill-rule="evenodd" clip-rule="evenodd" fill="#001A43" points="79.888,98.354 79.888,64.722 50.653,81.601 "/>
<polygon fill-rule="evenodd" clip-rule="evenodd" fill="#D68500" points="64.779,122.931 64.779,101.135 83.725,112.073 "/>
<polygon fill-rule="evenodd" clip-rule="evenodd" fill="#001A43" points="120.775,132.482 120.775,98.85 91.54,115.729 "/>
<polygon fill-rule="evenodd" clip-rule="evenodd" fill="#001A43" points="112.623,165.114 112.623,143.318 93.677,154.257 "/>
<polygon fill-rule="evenodd" clip-rule="evenodd" fill="#D68500" points="92.878,145.423 92.878,123.627 111.824,134.565 "/>
<path fill="#001A43" d="M137.285,125.065v-21.962h7.852c5.69,0,10.64,4.324,10.64,11.152c0,6.827-4.95,10.811-10.64,10.811H137.285z
	 M127.726,94.17v39.828h17.41c11.379,0,20.597-7.795,20.597-19.743c0-11.949-9.218-20.085-20.597-20.085H127.726z"/>
<polygon fill="#001A43" points="181.266,125.065 181.266,118.01 196.457,118.01 196.457,109.646 181.266,109.646 181.266,103.103 
	200.667,103.103 200.667,94.17 171.707,94.17 171.707,133.998 201.008,133.998 201.008,125.065 "/>
<polygon fill="#001A43" points="205.56,94.17 205.56,103.103 217.508,103.103 217.508,133.998 227.067,133.998 227.067,103.103 
	239.186,103.103 239.186,94.17 "/>
<path fill="#001A43" d="M253.751,103.103h6.6c3.414,0,4.779,2.56,4.779,4.723c0,2.162-1.365,4.722-4.779,4.722h-6.6V103.103z
	 M276.738,133.998l-8.819-14.68c4.608-2.162,7.169-6.145,7.169-11.493c0-8.193-6.031-13.656-16.045-13.656h-14.85v39.828h9.559
	v-12.973h4.893l7.397,12.973H276.738z"/>
<path fill="#001A43" d="M294.091,119.375l2.845-7.737c0.854-2.276,1.877-5.86,1.935-5.86h0.057c0.057,0,1.081,3.584,1.935,5.86
	l2.845,7.737H294.091z M309.055,133.998h10.298L303.422,94.17h-9.047l-15.931,39.828h10.298l2.276-6.259h15.76L309.055,133.998z"/>
<path fill="#001A43" d="M348.826,94.17v9.104c0,7.227,0.113,14.281,0.057,14.281h-0.057c-0.057,0-6.145-8.591-8.705-12.005
	l-8.478-11.379h-8.99v39.828h9.559v-8.819c0-8.705-0.113-14.851-0.057-14.851h0.057c0.058,0,5.405,7.568,9.047,12.575l8.136,11.095
	h8.99V94.17H348.826z"/>
<rect x="367.26" y="109.931" fill="#001A43" width="25.773" height="7.795"/>
<path fill="#001A43" d="M413.119,119.375l2.845-7.737c0.854-2.276,1.877-5.86,1.935-5.86h0.057c0.057,0,1.081,3.584,1.935,5.86
	l2.845,7.737H413.119z M428.082,133.998h10.299L422.45,94.17h-9.047l-15.931,39.828h10.298l2.276-6.259h15.76L428.082,133.998z"/>
<path fill="#001A43" d="M472.461,94.17l-7.453,12.063c-2.902,4.723-3.357,5.746-3.414,5.746h-0.057
	c-0.058,0-0.513-1.023-3.414-5.746l-7.454-12.063h-8.989v39.828h9.388v-9.729c0-9.445-0.341-14.11-0.284-14.11h0.058
	c0.057,0,3.243,5.462,3.584,6.031l4.666,7.965h4.949l4.666-7.965c0.341-0.569,3.527-6.031,3.584-6.031h0.057
	c0.058,0-0.284,4.665-0.284,14.11v9.729h9.388V94.17H472.461z"/>
<path fill-rule="evenodd" clip-rule="evenodd" fill="#001A43" d="M79.296,168.769l-32.614-18.689l32.614-18.829V168.769z
	 M88.81,185.188v-70.416l-61.208,35.338L88.81,185.188z"/>
</svg>
